<svg width="640" height="640" viewBox="0 0 640 640" xmlns="http://www.w3.org/2000/svg">
  <defs>
    <linearGradient id="bg8" x1="0" y1="0" x2="640" y2="640" gradientUnits="userSpaceOnUse">
      <stop offset="0%" stop-color="#05060c"/>
      <stop offset="100%" stop-color="#0b0a1a"/>
    </linearGradient>
    <linearGradient id="stroke8" x1="0" y1="0" x2="640" y2="640" gradientUnits="userSpaceOnUse">
      <stop offset="0%" stop-color="#A78BFA"/>
      <stop offset="100%" stop-color="#22D3EE"/>
    </linearGradient>
    <radialGradient id="glow8p" cx="50%" cy="50%" r="50%">
      <stop offset="0%" stop-color="#8B5CF6" stop-opacity="0.5"/>
      <stop offset="100%" stop-color="#8B5CF6" stop-opacity="0"/>
    </radialGradient>
    <radialGradient id="glow8c" cx="50%" cy="50%" r="50%">
      <stop offset="0%" stop-color="#22D3EE" stop-opacity="0.4"/>
      <stop offset="100%" stop-color="#22D3EE" stop-opacity="0"/>
    </radialGradient>
  </defs>

  <rect width="640" height="640" fill="url(#bg8)"/>
  <circle cx="150" cy="140" r="220" fill="url(#glow8p)"/>
  <circle cx="500" cy="520" r="230" fill="url(#glow8c)"/>

  <!-- raw waveform strip -->
  <g transform="translate(110,180)" stroke="#A78BFA" stroke-width="4" stroke-linecap="round" opacity="0.55">
    <line x1="0" y1="-4" x2="0" y2="4"/>
    <line x1="14" y1="-10" x2="14" y2="10"/>
    <line x1="28" y1="-20" x2="28" y2="20"/>
    <line x1="42" y1="-8" x2="42" y2="8"/>
    <line x1="56" y1="-26" x2="56" y2="26"/>
    <line x1="70" y1="-14" x2="70" y2="14"/>
    <line x1="84" y1="-30" x2="84" y2="30"/>
    <line x1="98" y1="-12" x2="98" y2="12"/>
    <line x1="112" y1="-22" x2="112" y2="22"/>
    <line x1="126" y1="-6" x2="126" y2="6"/>
    <line x1="140" y1="-28" x2="140" y2="28"/>
    <line x1="154" y1="-16" x2="154" y2="16"/>
    <line x1="168" y1="-24" x2="168" y2="24"/>
    <line x1="182" y1="-10" x2="182" y2="10"/>
    <line x1="196" y1="-32" x2="196" y2="32"/>
    <line x1="210" y1="-18" x2="210" y2="18"/>
    <line x1="224" y1="-6" x2="224" y2="6"/>
    <line x1="238" y1="-24" x2="238" y2="24"/>
    <line x1="252" y1="-14" x2="252" y2="14"/>
    <line x1="266" y1="-8" x2="266" y2="8"/>
    <line x1="280" y1="-22" x2="280" y2="22"/>
    <line x1="294" y1="-12" x2="294" y2="12"/>
    <line x1="308" y1="-28" x2="308" y2="28"/>
    <line x1="322" y1="-10" x2="322" y2="10"/>
    <line x1="336" y1="-18" x2="336" y2="18"/>
    <line x1="350" y1="-6" x2="350" y2="6"/>
    <line x1="364" y1="-24" x2="364" y2="24"/>
    <line x1="378" y1="-14" x2="378" y2="14"/>
    <line x1="392" y1="-8" x2="392" y2="8"/>
    <line x1="406" y1="-20" x2="406" y2="20"/>
    <line x1="420" y1="-4" x2="420" y2="4"/>
  </g>

  <!-- polyphonic event piano-roll -->
  <g font-family="Segoe UI, sans-serif" font-size="13" fill="#8b8aa0">
    <text x="100" y="252">DOG</text>
    <text x="94" y="292">CAT</text>
    <text x="76" y="332">SHEEP</text>
    <text x="86" y="372">COW</text>
    <text x="56" y="412">ROOSTER</text>
  </g>
  <g stroke="#2a2940" stroke-width="1" opacity="0.6">
    <line x1="140" y1="245" x2="530" y2="245"/>
    <line x1="140" y1="285" x2="530" y2="285"/>
    <line x1="140" y1="325" x2="530" y2="325"/>
    <line x1="140" y1="365" x2="530" y2="365"/>
    <line x1="140" y1="405" x2="530" y2="405"/>
  </g>

  <g>
    <rect x="150" y="234" width="90" height="20" rx="8" fill="#A78BFA" opacity="0.85"/>
    <rect x="260" y="234" width="60" height="20" rx="8" fill="#A78BFA" opacity="0.85"/>

    <rect x="200" y="274" width="110" height="20" rx="8" fill="#22D3EE" opacity="0.85"/>

    <rect x="170" y="314" width="70" height="20" rx="8" fill="url(#stroke8)" opacity="0.9"/>
    <rect x="360" y="314" width="90" height="20" rx="8" fill="url(#stroke8)" opacity="0.9"/>

    <rect x="280" y="354" width="130" height="20" rx="8" fill="#8B5CF6" opacity="0.85"/>

    <rect x="380" y="394" width="80" height="20" rx="8" fill="#22D3EE" opacity="0.7"/>
  </g>

  <!-- paw print -->
  <g transform="translate(480,150) scale(1.1)" fill="#22D3EE" opacity="0.85">
    <ellipse cx="0" cy="14" rx="17" ry="13"/>
    <ellipse cx="-16" cy="-8" rx="6.5" ry="8.5"/>
    <ellipse cx="0" cy="-15" rx="6.5" ry="8.5"/>
    <ellipse cx="16" cy="-8" rx="6.5" ry="8.5"/>
  </g>

  <text x="320" y="600" text-anchor="middle" font-family="Segoe UI, sans-serif" font-size="20" letter-spacing="3" fill="#A78BFA" opacity="0.65">FARM SOUND EVENT DETECTION</text>
</svg>
